<?xml version="1.0" encoding="utf-8"?>
<!-- Generator: Adobe Illustrator 27.4.1, SVG Export Plug-In . SVG Version: 6.00 Build 0)  -->
<svg version="1.1" id="图层_1" xmlns="http://www.w3.org/2000/svg" xmlns:xlink="http://www.w3.org/1999/xlink" x="0px" y="0px"
	 viewBox="0 0 566.9 283.5" style="enable-background:new 0 0 566.9 283.5;" xml:space="preserve">
<style type="text/css">
	.st0{fill-rule:evenodd;clip-rule:evenodd;fill:#FF5A5F;}
</style>
<path class="st0" d="M298.8,97.7c0,6.4-5.1,11.5-11.5,11.5c-6.4,0-11.5-5.1-11.5-11.5s5-11.5,11.5-11.5
	C293.8,86.4,298.8,91.5,298.8,97.7z M251.3,120.9v2.8c0,0-5.5-7.1-17.2-7.1c-19.3,0-34.4,14.7-34.4,35.1c0,20.2,14.9,35.1,34.4,35.1
	c11.9,0,17.2-7.3,17.2-7.3v3c0,1.4,1.1,2.5,2.5,2.5h14.3v-66.6h-14.3C252.4,118.4,251.3,119.7,251.3,120.9L251.3,120.9z
	 M251.3,163.6c-2.7,3.9-8,7.3-14.3,7.3c-11.3,0-20-7.1-20-19.1c0-12,8.7-19.1,20-19.1c6.2,0,11.9,3.5,14.3,7.3L251.3,163.6z
	 M278.8,118.4h17V185h-17V118.4z M532.7,116.7c-11.7,0-17.2,7.1-17.2,7.1V86.4h-17V185h14.3c1.4,0,2.5-1.2,2.5-2.5v-3
	c0,0,5.5,7.3,17.2,7.3c19.3,0,34.4-14.9,34.4-35.1C566.9,131.5,551.9,116.7,532.7,116.7L532.7,116.7z M529.9,170.7
	c-6.6,0-11.7-3.4-14.3-7.3v-23.7c2.7-3.5,8.3-7.3,14.3-7.3c11.3,0,20,7.1,20,19.1C549.9,163.6,541.2,170.7,529.9,170.7z
	 M489.7,145.5v39.7h-17v-37.7c0-11-3.5-15.4-13.1-15.4c-5.1,0-10.4,2.7-13.8,6.6V185h-17v-66.6h13.5c1.4,0,2.5,1.2,2.5,2.5v2.8
	c5-5.1,11.5-7.1,18.1-7.1c7.4,0,13.6,2.1,18.6,6.4C487.4,128,489.7,134.4,489.7,145.5L489.7,145.5z M387.5,116.7
	c-11.7,0-17.2,7.1-17.2,7.1V86.4h-17V185h14.3c1.4,0,2.5-1.2,2.5-2.5v-3c0,0,5.5,7.3,17.2,7.3c19.3,0,34.4-14.9,34.4-35.1
	C421.9,131.5,406.8,116.7,387.5,116.7L387.5,116.7z M384.7,170.7c-6.6,0-11.7-3.4-14.3-7.3v-23.7c2.7-3.5,8.3-7.3,14.3-7.3
	c11.3,0,20,7.1,20,19.1C404.7,163.6,396,170.7,384.7,170.7z M338.6,116.7c5.1,0,7.8,0.9,7.8,0.9v15.8c0,0-14.2-4.8-23,5.3v46.6h-17
	v-66.8h14.3c1.4,0,2.5,1.2,2.5,2.5v2.8C326.4,120,333.3,116.7,338.6,116.7L338.6,116.7z M162.1,179c-0.9-2.1-1.8-4.4-2.7-6.4
	c-1.4-3.2-2.8-6.2-4.1-9l-0.2-0.2c-12.2-26.6-25.3-53.5-39.1-80.1l-0.5-1.1c-1.4-2.7-2.8-5.5-4.3-8.3c-1.8-3.2-3.5-6.6-6.4-9.7
	c-5.7-7.1-13.8-11-22.5-11c-8.9,0-16.8,3.9-22.7,10.6c-2.7,3.2-4.6,6.6-6.4,9.7c-1.4,2.8-2.8,5.7-4.3,8.3L48.5,83
	c-13.6,26.6-26.9,53.5-39.1,80.1l-0.2,0.4c-1.2,2.8-2.7,5.8-4.1,9c-0.9,1.9-1.8,4.1-2.7,6.4c-2.3,6.6-3,12.8-2.1,19.1
	c1.9,13.3,10.8,24.4,23,29.4c4.6,1.9,9.4,2.8,14.3,2.8c1.4,0,3.2-0.2,4.6-0.4c5.8-0.7,11.9-2.7,17.7-6c7.3-4.1,14.2-9.9,22-18.4
	c7.8,8.5,14.9,14.3,22,18.4c5.8,3.4,11.9,5.3,17.7,6c1.4,0.2,3.2,0.4,4.6,0.4c5,0,9.9-0.9,14.3-2.8c12.4-5,21.1-16.3,23-29.4
	C165.1,191.8,164.4,185.6,162.1,179L162.1,179z M82.2,188.2c-9.6-12-15.8-23.4-17.9-32.9c-0.9-4.1-1.1-7.6-0.5-10.8
	c0.4-2.8,1.4-5.3,2.8-7.4c3.4-4.8,9-7.8,15.6-7.8c6.6,0,12.4,2.8,15.6,7.8c1.4,2.1,2.5,4.6,2.8,7.4c0.5,3.2,0.4,6.9-0.5,10.8
	C98,164.7,91.8,176,82.2,188.2z M152.9,196.5c-1.2,9.2-7.4,17.2-16.1,20.7c-4.3,1.8-8.9,2.3-13.5,1.8c-4.4-0.5-8.9-1.9-13.5-4.6
	c-6.4-3.5-12.8-9-20.2-17.2c11.7-14.3,18.8-27.5,21.4-39.1c1.2-5.5,1.4-10.4,0.9-15.1c-0.7-4.4-2.3-8.5-4.8-12
	c-5.5-8-14.7-12.6-25-12.6s-19.5,4.8-25,12.6c-2.5,3.5-4.1,7.6-4.8,12c-0.7,4.6-0.5,9.7,0.9,15.1c2.7,11.7,9.9,25,21.4,39.3
	c-7.3,8.1-13.8,13.6-20.2,17.2c-4.6,2.7-9,4.1-13.5,4.6c-4.8,0.5-9.4-0.2-13.5-1.8c-8.7-3.5-14.9-11.5-16.1-20.7
	c-0.5-4.4-0.2-8.9,1.6-13.8c0.5-1.8,1.4-3.5,2.3-5.7c1.2-2.8,2.7-5.8,4.1-8.9l0.2-0.4c12.2-26.4,25.3-53.3,39-79.5l0.5-1.1l4.3-8.1
	c1.4-2.8,3-5.5,5-7.8c3.7-4.3,8.7-6.6,14.2-6.6c5.5,0,10.4,2.3,14.2,6.6c1.9,2.3,3.5,5,5,7.8l4.3,8.1l0.5,1.1
	c13.5,26.4,26.6,53.3,38.8,79.7v0.2l4.1,8.9c0.9,2.1,1.8,3.9,2.3,5.7C153,187.5,153.6,191.9,152.9,196.5L152.9,196.5z"/>
</svg>
