<?xml version="1.0" encoding="utf-8"?>
<!-- Generator: Adobe Illustrator 27.4.1, SVG Export Plug-In . SVG Version: 6.00 Build 0)  -->
<svg version="1.1" id="图层_1" xmlns="http://www.w3.org/2000/svg" xmlns:xlink="http://www.w3.org/1999/xlink" x="0px" y="0px"
	 viewBox="0 0 566.9 283.5" style="enable-background:new 0 0 566.9 283.5;" xml:space="preserve">
<style type="text/css">
	.st0{clip-path:url(#SVGID_00000060011733346605681580000004433298709131491973_);}
	.st1{fill-rule:evenodd;clip-rule:evenodd;fill:#231F20;}
	.st2{fill-rule:evenodd;clip-rule:evenodd;fill:#F79410;}
	.st3{fill-rule:evenodd;clip-rule:evenodd;fill:#FF5F00;}
	.st4{fill-rule:evenodd;clip-rule:evenodd;fill:#EB001B;}
</style>
<g>
	<defs>
		<rect id="SVGID_1_" x="101.3" y="0" width="364.4" height="283.5"/>
	</defs>
	<clipPath id="SVGID_00000000193052165146943560000002955446818044519614_">
		<use xlink:href="#SVGID_1_"  style="overflow:visible;"/>
	</clipPath>
	<g style="clip-path:url(#SVGID_00000000193052165146943560000002955446818044519614_);">
		<path class="st1" d="M458.5,279.6v0.7h0.7c0.1,0,0.3,0,0.4-0.1c0.1-0.1,0.1-0.2,0.1-0.3c0-0.1,0-0.2-0.1-0.3
			c-0.1-0.1-0.2-0.1-0.4-0.1L458.5,279.6L458.5,279.6z M459.1,279.1c0.3,0,0.6,0.1,0.8,0.2c0.2,0.2,0.3,0.4,0.3,0.6
			c0,0.2-0.1,0.4-0.2,0.6c-0.2,0.2-0.4,0.3-0.7,0.3l0.9,1h-0.7l-0.8-1h-0.3v1h-0.6v-2.8L459.1,279.1L459.1,279.1z M459,282.8
			c0.3,0,0.6-0.1,0.9-0.2c0.3-0.1,0.5-0.3,0.7-0.5c0.2-0.2,0.4-0.5,0.5-0.7c0.2-0.6,0.2-1.2,0-1.8c-0.1-0.3-0.3-0.5-0.5-0.7
			c-0.2-0.2-0.5-0.4-0.7-0.5c-0.3-0.1-0.6-0.2-0.9-0.2c-0.3,0-0.6,0.1-0.9,0.2c-0.3,0.1-0.5,0.3-0.7,0.5c-0.7,0.7-0.8,1.7-0.5,2.6
			c0.1,0.3,0.3,0.5,0.5,0.7c0.2,0.2,0.5,0.4,0.7,0.5C458.3,282.8,458.7,282.8,459,282.8 M459,277.5c0.8,0,1.6,0.3,2.1,0.9
			c0.3,0.3,0.5,0.6,0.6,0.9c0.3,0.7,0.3,1.6,0,2.3c-0.2,0.4-0.4,0.7-0.6,0.9c-0.3,0.3-0.6,0.5-1,0.6c-0.4,0.2-0.8,0.2-1.2,0.2
			c-0.4,0-0.8-0.1-1.2-0.2c-0.4-0.1-0.7-0.4-1-0.6c-0.3-0.3-0.5-0.6-0.6-1c-0.3-0.7-0.3-1.6,0-2.3c0.2-0.4,0.4-0.7,0.6-0.9
			c0.3-0.3,0.6-0.5,1-0.6C458.2,277.6,458.6,277.5,459,277.5 M180,266.9c0-5.3,3.4-9.6,9.1-9.6c5.4,0,9,4.1,9,9.6
			c0,5.4-3.6,9.6-9,9.6C183.5,276.5,180,272.2,180,266.9 M204.2,266.9v-15h-6.5v3.6c-2.1-2.7-5.2-4.4-9.4-4.4c-8.4,0-15,6.6-15,15.7
			c0,9.1,6.6,15.7,15,15.7c4.3,0,7.4-1.7,9.4-4.4v3.6h6.5L204.2,266.9L204.2,266.9z M423.9,266.9c0-5.3,3.4-9.6,9.1-9.6
			c5.4,0,9,4.1,9,9.6c0,5.4-3.6,9.6-9,9.6C427.4,276.5,423.9,272.2,423.9,266.9 M448.1,266.9v-27h-6.5v15.6
			c-2.1-2.7-5.2-4.4-9.4-4.4c-8.4,0-15,6.6-15,15.7c0,9.1,6.6,15.7,15,15.7c4.3,0,7.4-1.7,9.4-4.4v3.6h6.5V266.9z M284.9,257
			c4.2,0,6.9,2.6,7.6,7.3H277C277.7,260,280.3,257,284.9,257 M285.1,251.2c-8.8,0-14.9,6.4-14.9,15.7c0,9.5,6.4,15.7,15.3,15.7
			c4.5,0,8.6-1.1,12.3-4.2l-3.2-4.8c-2.5,2-5.7,3.1-8.7,3.1c-4.2,0-8-1.9-8.9-7.3h22.2c0.1-0.8,0.1-1.6,0.1-2.5
			C299.2,257.6,293.4,251.2,285.1,251.2 M363.5,266.9c0-5.3,3.4-9.6,9.1-9.6c5.4,0,9,4.1,9,9.6s-3.6,9.6-9,9.6
			C367,276.5,363.5,272.1,363.5,266.9 M387.8,266.9v-14.9h-6.5v3.6c-2.1-2.7-5.2-4.4-9.4-4.4c-8.4,0-15,6.6-15,15.7
			c0,9.1,6.6,15.7,15,15.7c4.3,0,7.4-1.7,9.4-4.4v3.6h6.5L387.8,266.9L387.8,266.9z M326.8,266.9c0,9.1,6.3,15.7,16,15.7
			c4.5,0,7.5-1,10.7-3.6l-3.1-5.3c-2.4,1.8-5,2.7-7.8,2.7c-5.2-0.1-9-3.8-9-9.6s3.8-9.5,9-9.6c2.8,0,5.4,0.9,7.8,2.7l3.1-5.3
			c-3.3-2.6-6.3-3.6-10.7-3.6C333.1,251.2,326.8,257.8,326.8,266.9 M410.7,251.2c-3.8,0-6.2,1.8-7.9,4.4v-3.6h-6.4v29.9h6.5v-16.8
			c0-4.9,2.1-7.7,6.4-7.7c1.4,0,2.8,0.2,4.1,0.8l2-6.1C413.8,251.4,412,251.2,410.7,251.2 M236.4,254.3c-3.1-2.1-7.4-3.1-12.2-3.1
			c-7.6,0-12.5,3.6-12.5,9.6c0,4.9,3.6,7.9,10.3,8.8l3.1,0.4c3.6,0.5,5.2,1.4,5.2,3.1c0,2.3-2.4,3.6-6.8,3.6c-4.5,0-7.8-1.4-9.9-3.1
			l-3.1,5.1c3.6,2.6,8.1,3.9,12.9,3.9c8.6,0,13.6-4.1,13.6-9.8c0-5.3-3.9-8-10.4-8.9l-3.1-0.4c-2.8-0.4-5.1-0.9-5.1-2.9
			c0-2.2,2.1-3.5,5.7-3.5c3.8,0,7.5,1.4,9.3,2.6L236.4,254.3L236.4,254.3z M320.3,251.2c-3.8,0-6.2,1.8-7.9,4.4v-3.6h-6.4v29.9h6.5
			v-16.8c0-4.9,2.1-7.7,6.4-7.7c1.4,0,2.8,0.2,4.1,0.8l2-6.1C323.5,251.4,321.6,251.2,320.3,251.2 M264.8,251.9h-10.6v-9.1h-6.6v9.1
			h-6.1v5.9h6.1v13.6c0,6.9,2.7,11.1,10.4,11.1c2.8,0,6.1-0.9,8.1-2.3l-1.9-5.6c-1.9,1.1-4.1,1.7-5.8,1.7c-3.3,0-4.3-2-4.3-5v-13.5
			h10.6L264.8,251.9z M167.6,281.9v-18.8c0-7.1-4.5-11.8-11.8-11.9c-3.8-0.1-7.8,1.1-10.5,5.3c-2.1-3.3-5.3-5.3-9.9-5.3
			c-3.2,0-6.3,0.9-8.8,4.4v-3.7h-6.5v29.9h6.6v-16.6c0-5.2,2.9-7.9,7.3-7.9c4.3,0,6.5,2.8,6.5,7.9v16.6h6.6v-16.6
			c0-5.2,3-7.9,7.3-7.9c4.4,0,6.6,2.8,6.6,7.9v16.6L167.6,281.9z"/>
		<path class="st2" d="M462.2,182.4V178H461l-1.3,3l-1.3-3h-1.1v4.4h0.8v-3.3l1.2,2.8h0.8l1.2-2.8v3.3H462.2L462.2,182.4z
			 M454.9,182.4v-3.6h1.5V178h-3.7v0.7h1.5v3.6H454.9z"/>
		<path class="st3" d="M332.8,201.1h-98.5V24.1h98.5L332.8,201.1z"/>
		<path class="st4" d="M240.5,112.6c0-35.9,16.8-67.9,43-88.5C263.7,8.4,239.1,0,213.9,0c-62.2,0-112.6,50.4-112.6,112.6
			c0,62.2,50.4,112.6,112.6,112.6c25.2,0,49.8-8.4,69.6-24.1C257.3,180.5,240.5,148.5,240.5,112.6"/>
		<path class="st2" d="M465.7,112.6c0,62.2-50.4,112.6-112.6,112.6c-25.2,0-49.8-8.4-69.6-24.1c26.2-20.6,43-52.6,43-88.5
			c0-35.9-16.8-67.9-43-88.5C303.3,8.4,327.8,0,353.1,0C415.3,0,465.7,50.4,465.7,112.6"/>
	</g>
</g>
</svg>
