<?xml version="1.0" encoding="utf-8"?>
<!-- Generator: Adobe Illustrator 27.4.1, SVG Export Plug-In . SVG Version: 6.00 Build 0)  -->
<svg version="1.1" id="图层_1" xmlns="http://www.w3.org/2000/svg" xmlns:xlink="http://www.w3.org/1999/xlink" x="0px" y="0px"
	 viewBox="0 0 566.9 283.5" style="enable-background:new 0 0 566.9 283.5;" xml:space="preserve">
<style type="text/css">
	.st0{fill:#253B80;}
	.st1{fill:#179BD7;}
	.st2{fill:#222D65;}
</style>
<g transform="matrix(2.9823 0 0 2.9823 95.7143 155)">
	<path class="st0" d="M39-17.3H28.5c-0.7,0-1.3,0.5-1.4,1.2l-4.3,27c0,0,0,0.1,0,0.1c0,0.5,0.4,0.9,0.9,0.9h5c0.7,0,1.3-0.5,1.4-1.2
		l1.1-7.3c0.1-0.7,0.7-1.2,1.4-1.2H36c6.9,0,10.9-3.4,12-10c0.5-2.9,0-5.2-1.3-6.8C45.2-16.3,42.5-17.3,39-17.3L39-17.3z M40.2-7.4
		c-0.6,3.8-3.5,3.8-6.2,3.8h-1.6l1.1-7c0.1-0.4,0.4-0.7,0.9-0.7h0.7c1.9,0,3.7,0,4.6,1.1C40.2-9.7,40.4-8.8,40.2-7.4L40.2-7.4z
		 M70.4-7.5h-5c-0.4,0-0.8,0.3-0.9,0.7l-0.2,1.4L64-5.9C62.9-7.5,60.4-8,58-8C52.4-8,47.7-3.8,46.8,2.1c-0.5,3,0.2,5.8,1.9,7.7
		c1.5,1.8,3.7,2.6,6.3,2.6c4.5,0,7-2.9,7-2.9l-0.2,1.4c0,0,0,0.1,0,0.1c0,0.5,0.4,0.9,0.9,0.9h4.5c0.7,0,1.3-0.5,1.4-1.2l2.7-17.2
		c0,0,0-0.1,0-0.1C71.3-7.2,70.9-7.5,70.4-7.5z M63.4,2.3c-0.5,2.9-2.8,4.8-5.7,4.8c-1.5,0-2.6-0.5-3.4-1.4c-0.7-0.9-1-2.1-0.8-3.5
		c0.5-2.9,2.8-4.8,5.6-4.8c1.4,0,2.6,0.5,3.4,1.4C63.3-0.4,63.6,0.9,63.4,2.3L63.4,2.3z M97.3-7.5h-5.1c-0.5,0-0.9,0.2-1.2,0.6
		L84,3.4l-3-9.9c-0.2-0.6-0.8-1-1.4-1h-5c0,0,0,0,0,0c-0.5,0-0.9,0.4-0.9,0.9c0,0.1,0,0.2,0,0.3L79.4,10l-5.2,7.4
		c-0.1,0.1-0.2,0.3-0.2,0.5c0,0.5,0.4,0.9,0.9,0.9h5.1c0.5,0,0.9-0.2,1.2-0.6L98-6.2c0.1-0.1,0.2-0.3,0.2-0.5
		C98.1-7.2,97.7-7.5,97.3-7.5L97.3-7.5z"/>
	<path class="st1" d="M114-17.3h-10.5c-0.7,0-1.3,0.5-1.4,1.2l-4.3,27c0,0,0,0.1,0,0.1c0,0.5,0.4,0.9,0.9,0.9h5.4
		c0.5,0,0.9-0.4,1-0.9l1.2-7.6c0.1-0.7,0.7-1.2,1.4-1.2h3.3c6.9,0,10.9-3.4,12-10c0.5-2.9,0-5.2-1.3-6.8
		C120.2-16.3,117.5-17.3,114-17.3L114-17.3z M115.2-7.4c-0.6,3.8-3.5,3.8-6.2,3.8h-1.6l1.1-7c0.1-0.4,0.4-0.7,0.9-0.7h0.7
		c1.9,0,3.7,0,4.6,1.1C115.3-9.7,115.4-8.8,115.2-7.4z M145.5-7.5h-5c-0.4,0-0.8,0.3-0.9,0.7l-0.2,1.4L139-5.9
		C137.9-7.5,135.5-8,133-8c-5.6,0-10.3,4.2-11.2,10.1c-0.5,3,0.2,5.8,1.9,7.7c1.5,1.8,3.7,2.6,6.3,2.6c4.5,0,7-2.9,7-2.9l-0.2,1.4
		c0,0,0,0.1,0,0.1c0,0.5,0.4,0.9,0.9,0.9h0h4.5c0.7,0,1.3-0.5,1.4-1.2l2.7-17.2c0,0,0-0.1,0-0.1C146.3-7.1,145.9-7.5,145.5-7.5
		C145.5-7.5,145.5-7.5,145.5-7.5L145.5-7.5z M138.4,2.3c-0.5,2.9-2.8,4.8-5.7,4.8c-1.5,0-2.6-0.5-3.4-1.4c-0.7-0.9-1-2.1-0.8-3.5
		c0.5-2.9,2.8-4.8,5.6-4.8c1.4,0,2.6,0.5,3.4,1.4C138.4-0.4,138.7,0.9,138.4,2.3z M151.4-16.5l-4.3,27.5c0,0,0,0.1,0,0.1
		c0,0.5,0.4,0.9,0.9,0.9h4.3c0.7,0,1.3-0.5,1.4-1.2l4.3-27c0,0,0-0.1,0-0.1c0-0.5-0.4-0.9-0.9-0.9h-4.9
		C151.8-17.3,151.5-17,151.4-16.5z"/>
	<path class="st0" d="M-20.9,17.2l0.8-5.1l-1.8,0h-8.6l5.9-37.7c0-0.2,0.2-0.4,0.5-0.4h14.4c4.8,0,8.1,1,9.8,3
		c0.8,0.9,1.3,1.9,1.6,2.9c0.3,1.1,0.3,2.4,0,4.1l0,0.1v1l0.8,0.5c0.6,0.3,1.2,0.7,1.6,1.2c0.7,0.8,1.1,1.8,1.3,3
		C5.8-9,5.7-7.6,5.4-5.9C5-4,4.4-2.4,3.6-1C2.9,0.2,1.9,1.2,0.8,2C-0.3,2.8-1.6,3.4-3,3.7c-1.4,0.4-3,0.5-4.7,0.5h-1.1
		c-0.8,0-1.6,0.3-2.2,0.8c-0.6,0.5-1,1.2-1.1,2l-0.1,0.5l-1.4,9l-0.1,0.3c0,0.1,0,0.2-0.1,0.2c0,0-0.1,0.1-0.1,0.1L-20.9,17.2z"/>
	<path class="st1" d="M3.4-15.9c0,0.3-0.1,0.6-0.1,0.8C1.3-5.3-5.2-1.9-13.5-1.9h-4.2c-1,0-1.9,0.7-2,1.7l-2.2,13.7l-0.6,3.9
		c0,0.1,0,0.1,0,0.2c0,0.6,0.5,1.1,1.1,1.1h7.5c0.9,0,1.6-0.6,1.8-1.5l0.1-0.4l1.4-9l0.1-0.5c0.1-0.9,0.9-1.5,1.8-1.5h1.1
		c7.3,0,13-3,14.6-11.5c0.7-3.6,0.3-6.6-1.5-8.6C4.8-14.9,4.1-15.5,3.4-15.9L3.4-15.9z"/>
	<path class="st2" d="M1.4-16.7c-0.6-0.2-1.2-0.3-1.9-0.4c-1.2-0.2-2.5-0.3-3.7-0.3h-11.3c-0.9,0-1.6,0.7-1.8,1.5l-2.4,15.2
		l-0.1,0.4c0.2-1,1-1.7,2-1.7h4.2C-5.2-1.9,1.3-5.3,3.2-15c0.1-0.3,0.1-0.6,0.1-0.8c-0.5-0.3-1-0.5-1.6-0.7
		C1.7-16.6,1.5-16.6,1.4-16.7z"/>
	<path class="st0" d="M-17.3-15.8c0.1-0.9,0.9-1.5,1.8-1.5h11.3c1.3,0,2.6,0.1,3.7,0.3c0.8,0.1,1.5,0.3,2.3,0.5
		c0.6,0.2,1.1,0.4,1.6,0.7c0.6-3.6,0-6.1-2-8.3c-2.2-2.5-6-3.5-11-3.5H-24c-1,0-1.9,0.7-2,1.7l-6,38.1c0,0.1,0,0.1,0,0.2
		c0,0.7,0.6,1.2,1.2,1.2h8.9l2.2-14.2L-17.3-15.8z"/>
</g>
</svg>
