<?xml version="1.0" encoding="utf-8"?>
<!-- Generator: Adobe Illustrator 27.4.1, SVG Export Plug-In . SVG Version: 6.00 Build 0)  -->
<svg version="1.1" id="图层_1" xmlns="http://www.w3.org/2000/svg" xmlns:xlink="http://www.w3.org/1999/xlink" x="0px" y="0px"
	 viewBox="0 0 566.9 283.5" style="enable-background:new 0 0 566.9 283.5;" xml:space="preserve">
<style type="text/css">
	.st0{fill:#01798A;}
	.st1{fill:#024381;}
	.st2{fill:#DD0228;}
	.st3{fill:#FFFFFF;}
	.st4{fill:#E02F41;}
	.st5{fill:#2E4F7D;}
</style>
<path class="st0" d="M483.4,0.1l-109.3,0h0c-0.1,0-0.2,0-0.2,0c-15,0.5-33.7,12.5-37.1,27.3l-51.7,228.6c-3.4,15,5.9,27.2,20.8,27.4
	h114.8c14.7-0.7,28.9-12.6,32.3-27.3l51.7-228.6C508.1,12.4,498.6,0.1,483.4,0.1"/>
<path class="st1" d="M285.1,256.1l51.7-228.6c3.4-14.8,22.1-26.9,37.1-27.3l-43.4,0l-78.3,0c-15.1,0.3-34,12.4-37.4,27.4
	l-51.7,228.6c-3.4,15,5.9,27.2,20.8,27.4h122C291,283.2,281.7,271.1,285.1,256.1"/>
<path class="st2" d="M163.1,256.1l51.7-228.6c3.4-15,22.3-27.1,37.4-27.4L151.9,0c-15.1,0-34.5,12.3-38,27.4L62.2,256.1
	c-0.3,1.4-0.5,2.8-0.6,4.1v4.2c1,10.9,9.4,18.9,21.3,19.1h100.9C168.9,283.2,159.7,271.1,163.1,256.1"/>
<path class="st3" d="M254.3,166.6h1.9c1.7,0,2.9-0.6,3.5-1.7l4.9-7.4h13.2l-2.8,4.9h15.8l-2,7.4H270c-2.2,3.3-4.8,4.8-8.1,4.6h-9.8
	L254.3,166.6 M252.1,177.3h34.7l-2.2,8.1h-14l-2.1,7.8h13.6l-2.2,8.1h-13.6l-3.2,11.5c-0.8,1.9,0.2,2.8,3.1,2.6h11.1l-2,7.5H254
	c-4,0-5.4-2.3-4.1-6.9l4-14.7h-8.7l2.2-8.1h8.7l2.1-7.8h-8.3L252.1,177.3L252.1,177.3z M307.5,157.5l-0.5,4.7c0,0,6.5-4.9,12.5-4.9
	h22l-8.4,30.4c-0.7,3.5-3.7,5.2-9,5.2h-24.9l-5.8,21.3c-0.3,1.1,0.1,1.7,1.4,1.7h4.9l-1.8,6.6h-12.5c-4.8,0-6.8-1.4-6-4.3l16.5-60.8
	L307.5,157.5L307.5,157.5z M326.1,166.1h-19.6l-2.3,8.2c0,0,3.3-2.4,8.7-2.4c5.4-0.1,11.6,0,11.6,0L326.1,166.1L326.1,166.1z
	 M319,185.1c1.4,0.2,2.3-0.4,2.4-1.7l1.2-4.3h-19.6l-1.6,6.1H319z M305.7,194.9H317l-0.2,4.9h3c1.5,0,2.3-0.5,2.3-1.5l0.9-3.2h9.4
	l-1.3,4.6c-1.1,3.9-3.9,5.9-8.5,6.1h-6l0,8.4c-0.1,1.3,1.1,2,3.6,2h5.7l-1.8,6.6h-13.6c-3.8,0.2-5.7-1.6-5.6-5.5L305.7,194.9
	 M168.6,117c-1.5,7.5-5.1,13.3-10.6,17.4c-5.5,4-12.5,6.1-21.2,6.1c-8.1,0-14.1-2.1-17.9-6.2c-2.6-2.9-3.9-6.7-3.9-11.2
	c0-1.9,0.2-3.9,0.7-6l9.2-44.4h13.9l-9.1,43.9c-0.3,1.1-0.4,2.2-0.4,3.4c0,2.2,0.5,4.1,1.7,5.5c1.6,2.1,4.3,3.2,8,3.2
	c4.3,0,7.8-1,10.5-3.2c2.7-2.1,4.5-5.1,5.3-8.9l9.1-43.9h13.8L168.6,117 M227,99.5h10.9l-8.5,39.6h-10.9L227,99.5 M230.4,85.1h11
	l-2.1,9.6h-11L230.4,85.1 M247.5,136.1c-2.8-2.7-4.3-6.4-4.3-11c0-0.8,0-1.7,0.2-2.7c0.1-1,0.2-2,0.4-2.9c1.3-6.4,4-11.5,8.3-15.3
	c4.2-3.8,9.3-5.7,15.3-5.7c4.9,0,8.8,1.4,11.6,4.1c2.8,2.7,4.3,6.5,4.3,11.2c0,0.8-0.1,1.7-0.2,2.7c-0.1,1-0.3,2-0.5,3
	c-1.3,6.3-4,11.4-8.2,15.1c-4.2,3.7-9.3,5.6-15.2,5.6C254.2,140.1,250.3,138.8,247.5,136.1 M268.2,128.2c1.9-2.1,3.3-5.2,4.1-9.4
	c0.1-0.7,0.2-1.3,0.3-2c0.1-0.7,0.1-1.3,0.1-1.9c0-2.4-0.6-4.3-1.9-5.7c-1.2-1.4-3-2-5.3-2c-3,0-5.5,1.1-7.4,3.2
	c-1.9,2.1-3.3,5.3-4.2,9.6c-0.1,0.7-0.2,1.3-0.3,2c-0.1,0.7-0.1,1.3-0.1,1.8c0,2.4,0.6,4.3,1.9,5.6c1.2,1.3,3,2,5.3,2
	C263.9,131.4,266.3,130.3,268.2,128.2"/>
<path class="st4" d="M374.1,0.1l-43.7,0l43.4,0C374,0.1,374,0.1,374.1,0.1"/>
<path class="st5" d="M330.4,0l-77.7,0c-0.2,0-0.4,0-0.6,0L330.4,0"/>
<path class="st3" d="M353.8,167l2.6-9.2h13.3l-0.6,3.4c0,0,6.8-3.4,11.7-3.4h16.4l-2.6,9.2H392l-12.4,43.6h2.6l-2.5,8.6h-2.6
	l-1.1,3.8h-12.8l1.1-3.8H339l2.5-8.6h2.5l12.4-43.6L353.8,167 M368.1,167l-3.4,11.8c0,0,5.8-2.2,10.8-2.8c1.1-4.1,2.5-8.9,2.5-8.9
	H368.1z M363.2,184.3l-3.4,12.3c0,0,6.4-3.2,10.8-3.4c1.3-4.8,2.5-8.9,2.5-8.9L363.2,184.3L363.2,184.3z M365.7,210.5l2.5-9h-9.9
	l-2.6,9H365.7z M397.8,157.2h12.5l0.5,4.6c-0.1,1.2,0.6,1.7,2.1,1.7h2.2l-2.2,7.8h-9.2c-3.5,0.2-5.3-1.2-5.5-4L397.8,157.2z
	 M394.1,173.9h40.4l-2.4,8.4h-12.9l-2.2,7.8h12.9l-2.4,8.4h-14.3l-3.2,4.9h7l1.6,9.8c0.2,1,1.1,1.5,2.5,1.5h2.2l-2.3,8.1h-7.7
	c-4,0.2-6.1-1.1-6.2-4l-1.9-9l-6.4,9.5c-1.5,2.7-3.8,3.9-6.9,3.8h-11.8l2.3-8.1h3.7c1.5,0,2.8-0.7,3.9-2l10-14.4h-12.9l2.4-8.4h14
	l2.2-7.8h-14L394.1,173.9 M181.4,99.5h9.8l-1.1,5.7l1.4-1.6c3.2-3.4,7-5.1,11.6-5.1c4.1,0,7.1,1.2,9,3.6c1.8,2.4,2.3,5.7,1.5,10
	l-5.4,27h-10.1l4.9-24.5c0.5-2.5,0.4-4.4-0.4-5.6c-0.8-1.2-2.2-1.8-4.3-1.8c-2.6,0-4.8,0.8-6.6,2.4c-1.8,1.6-3,3.9-3.5,6.7
	l-4.5,22.8h-10.1L181.4,99.5 M294,99.5h9.8l-1.1,5.7l1.4-1.6c3.2-3.4,7.1-5.1,11.6-5.1c4.1,0,7.1,1.2,9,3.6c1.8,2.4,2.4,5.7,1.5,10
	l-5.4,27h-10.1l4.9-24.5c0.5-2.5,0.4-4.4-0.4-5.6c-0.8-1.2-2.2-1.8-4.3-1.8c-2.6,0-4.8,0.8-6.6,2.4c-1.8,1.6-3,3.9-3.5,6.7
	l-4.5,22.8h-10.1L294,99.5 M342.5,74.9H371c5.5,0,9.7,1.2,12.6,3.7c2.9,2.5,4.4,6,4.4,10.6v0.1c0,0.9-0.1,1.9-0.1,2.9
	c-0.1,1.1-0.3,2.2-0.6,3.3c-1.3,6.1-4.2,11-8.7,14.7c-4.5,3.7-9.9,5.6-16,5.6h-15.3l-4.7,23.2h-13.2L342.5,74.9 M349.6,104.8h12.7
	c3.3,0,5.9-0.8,7.8-2.3c1.9-1.5,3.2-3.9,3.8-7.1c0.1-0.6,0.2-1.1,0.3-1.6c0-0.5,0.1-0.9,0.1-1.4c0-2.3-0.8-3.9-2.4-5
	c-1.6-1-4.2-1.5-7.7-1.5h-10.8L349.6,104.8 M447.3,146.8c-4.2,8.9-8.2,14.1-10.5,16.5c-2.3,2.4-7,7.9-18.2,7.5l1-6.8
	c9.4-2.9,14.5-16,17.4-21.8l-3.5-42.6l7.3-0.1h6.1l0.7,26.7L459,99.5h11.6L447.3,146.8 M414.9,102.7l-4.6,3.2
	c-4.8-3.8-9.2-6.1-17.7-2.2c-11.6,5.4-21.2,46.4,10.6,32.9l1.8,2.1l12.5,0.3l8.2-37.3L414.9,102.7 M407.8,123.1
	c-2,5.9-6.5,9.8-10,8.7c-3.5-1.1-4.8-6.8-2.7-12.8c2-5.9,6.5-9.8,10-8.7C408.5,111.5,409.8,117.2,407.8,123.1"/>
</svg>
