<?xml version="1.0" encoding="utf-8"?>
<!-- Generator: Adobe Illustrator 27.4.1, SVG Export Plug-In . SVG Version: 6.00 Build 0)  -->
<svg version="1.1" id="图层_1" xmlns="http://www.w3.org/2000/svg" xmlns:xlink="http://www.w3.org/1999/xlink" x="0px" y="0px"
	 viewBox="0 0 566.9 283.5" style="enable-background:new 0 0 566.9 283.5;" xml:space="preserve">
<style type="text/css">
	.st0{fill-rule:evenodd;clip-rule:evenodd;fill:#1A1F71;}
</style>
<path class="st0" d="M293.2,108.7c-0.3,25.5,22.7,39.7,40.1,48.2c17.8,8.7,23.8,14.2,23.8,22c-0.1,11.9-14.2,17.1-27.4,17.3
	c-23,0.4-36.4-6.2-47-11.2l-8.3,38.8c10.7,4.9,30.4,9.2,50.9,9.4c48.1,0,79.6-23.7,79.8-60.6c0.2-46.7-64.6-49.3-64.2-70.2
	c0.2-6.3,6.2-13.1,19.4-14.8c6.6-0.9,24.7-1.5,45.2,7.9l8.1-37.5c-11-4-25.2-7.9-42.9-7.9C325.3,50.2,293.5,74.3,293.2,108.7
	 M490.8,53.4c-8.8,0-16.2,5.1-19.5,13l-68.7,164.1h48.1l9.6-26.4H519l5.6,26.4h42.4L530,53.4H490.8z M497.6,101.3l13.9,66.5h-38
	L497.6,101.3z M234.9,53.4L197,230.5h45.8l37.9-177.1H234.9z M167.1,53.4L119.5,174L100.2,71.5C97.9,60,89,53.4,79,53.4h-78L0,58.6
	c16,3.5,34.2,9.1,45.2,15.1c6.7,3.7,8.7,6.9,10.9,15.6l36.5,141.3H141l74.2-177.1H167.1z"/>
</svg>
